<?xml version="1.0" standalone="no"?>
<!DOCTYPE svg PUBLIC "-//W3C//DTD SVG 20010904//EN"
 "http://www.w3.org/TR/2001/REC-SVG-20010904/DTD/svg10.dtd">
<svg version="1.0" xmlns="http://www.w3.org/2000/svg"
 width="1695.000000pt" height="1695.000000pt" viewBox="0 0 1695.000000 1695.000000"
 preserveAspectRatio="xMidYMid meet">
<metadata>
Created by potrace 1.14, written by Peter Selinger 2001-2017
</metadata>
<g transform="translate(0.000000,1695.000000) scale(0.100000,-0.100000)"
fill="#000000" stroke="none">
<path d="M8145 16943 c-1810 -73 -3556 -724 -4964 -1851 -543 -435 -1062 -969
-1477 -1522 -853 -1135 -1408 -2469 -1613 -3870 -64 -442 -85 -736 -85 -1220
0 -488 19 -766 84 -1220 193 -1344 718 -2639 1520 -3751 858 -1188 2031 -2146
3372 -2753 928 -419 1881 -658 2943 -737 360 -27 998 -15 1410 27 1928 194
3742 1055 5121 2429 1412 1407 2278 3254 2459 5245 188 2065 -401 4149 -1644
5815 -1176 1578 -2853 2692 -4757 3164 -774 191 -1591 276 -2369 244z m870
-3613 c388 -11 577 -24 828 -56 700 -88 1185 -263 1615 -586 202 -152 425
-395 551 -601 147 -242 252 -538 298 -842 25 -170 25 -564 0 -725 -82 -518
-316 -979 -678 -1332 -113 -110 -225 -197 -373 -290 -115 -72 -131 -86 -148
-126 -18 -39 -18 -50 -8 -88 14 -51 31 -67 85 -84 215 -67 525 -216 725 -348
798 -529 1133 -1342 980 -2377 -102 -683 -432 -1222 -1014 -1653 -416 -307
-945 -504 -1601 -596 -259 -36 -369 -45 -666 -56 -369 -13 -3835 -13 -3919 1
-139 22 -236 93 -297 217 l-38 76 0 4585 0 4586 32 67 c56 120 168 206 295
227 72 12 2943 13 3333 1z"/>
<path d="M7750 11615 c-19 -9 -47 -28 -63 -43 -58 -55 -57 -38 -57 -1066 0
-626 4 -954 11 -979 14 -51 61 -102 113 -122 39 -15 103 -16 632 -12 474 3
610 7 698 20 300 45 517 154 711 358 175 184 253 365 276 637 34 419 -92 743
-371 956 -166 127 -350 206 -570 243 -143 24 -1328 31 -1380 8z"/>
<path d="M7805 7795 c-5 -2 -22 -6 -37 -9 -34 -8 -93 -59 -116 -100 -16 -29
-17 -117 -20 -1106 -2 -765 0 -1088 8 -1120 15 -61 50 -103 106 -129 l47 -22
756 4 c627 3 777 7 879 20 289 39 503 119 705 265 315 227 467 539 467 962 0
188 -33 360 -97 505 -130 295 -438 548 -791 650 -244 70 -481 85 -1322 84
-316 0 -579 -2 -585 -4z"/>
</g>
</svg>
